<svg width="100" height="72" xmlns="http://www.w3.org/2000/svg">

 <metadata id="metadata5">image/svg+xml</metadata>
 <g>
  <title>background</title>
  <rect fill="none" id="canvas_background" height="74" width="102" y="-1" x="-1"/>
 </g>
 <g>
  <title>Layer 1</title>
  <g stroke="null" id="layer1">
   <path stroke="#22262f" fill="none" stroke-width="6.041631" stroke-miterlimit="4" id="path4581" d="m18.686717,68.817989c-3.85329,-0.60217 -7.11788,-2.406 -9.93311,-5.48849c-2.4504,-2.68304 -4.02255,-5.7199 -4.82346,-9.31731c-0.57353,-2.57611 -0.57353,-7.00691 0,-9.58301c0.77223,-3.46859 2.1834,-6.2768 4.49826,-8.95154c3.22565,-3.72708 6.96131,-5.62966 11.64572,-5.93113l1.93587,-0.12454l0.52577,-1.35898c1.70342,-4.40286 5.2443,-8.32616 9.21434,-10.20944c2.3798,-1.12892 3.78056,-1.41311 7.01198,-1.42261l2.89045,-0.008l1.0038,-1.69061c3.33442,-5.61582 8.68026,-9.63508 14.77674,-11.10986c2.08167,-0.50356 6.92926,-0.49492 9.06062,0.01614c4.71032,1.12943 8.6603,3.51874 11.96823,7.23946c4.20546,4.73026 6.52393,10.64836 6.81146,17.38689l0.10168,2.38292l1.20847,0.59152c4.90862,2.40262 8.7743,7.64555 10.0099,13.57624c0.49782,2.38945 0.45999,6.76319 -0.0795,9.19709c-0.76774,3.46327 -2.18019,6.2751 -4.49654,8.95155c-2.33874,2.70231 -4.99855,4.46522 -8.18919,5.42775l-1.52067,0.45874l-31.53615,0.0267c-17.34489,0.0146 -31.78296,-0.0113 -32.08461,-0.059l-0.00006,-0.00048z"/>
   <path stroke="#22262f" fill="none" stroke-width="5.291667" stroke-miterlimit="4" d="m52.695504,25.474772l-9.170589,14.159586l-9.17058,14.159581l17.958727,0.202464l17.958713,0.202462l-8.788133,-14.362043l-8.788138,-14.362051z" id="path4652"/>
  </g>
 </g>
</svg>